<?xml version="1.0" encoding="UTF-8" standalone="no"?>
<!DOCTYPE svg PUBLIC "-//W3C//DTD SVG 1.1//EN"
 "http://www.w3.org/Graphics/SVG/1.1/DTD/svg11.dtd">
<!-- Generated by graphviz version 2.43.0 (0)
 -->
<!-- Title: gitea_integration Pages: 1 -->
<svg width="376pt" height="338pt"
 viewBox="0.00 0.00 376.00 338.00" xmlns="http://www.w3.org/2000/svg" xmlns:xlink="http://www.w3.org/1999/xlink">
<g id="graph0" class="graph" transform="scale(1 1) rotate(0) translate(4 334)">
<title>gitea_integration</title>
<polygon fill="white" stroke="transparent" points="-4,4 -4,-334 372,-334 372,4 -4,4"/>
<text text-anchor="middle" x="184" y="-314.8" font-family="Helvetica,sans-Serif" font-size="14.00">CLI: amplifier&#45;gitea</text>
<g id="clust1" class="cluster">
<title>cluster_local</title>
<path fill="none" stroke="#666666" stroke-dasharray="5,2" d="M20,-8C20,-8 348,-8 348,-8 354,-8 360,-14 360,-20 360,-20 360,-287 360,-287 360,-293 354,-299 348,-299 348,-299 20,-299 20,-299 14,-299 8,-293 8,-287 8,-287 8,-20 8,-20 8,-14 14,-8 20,-8"/>
<text text-anchor="middle" x="184" y="-286.2" font-family="Helvetica,sans-Serif" font-size="11.00">CLI runs on consumer&#39;s machine</text>
</g>
<g id="clust3" class="cluster">
<title>cluster_legend</title>
<path fill="none" stroke="#999999" d="M223,-16C223,-16 317,-16 317,-16 323,-16 329,-22 329,-28 329,-28 329,-79 329,-79 329,-85 323,-91 317,-91 317,-91 223,-91 223,-91 217,-91 211,-85 211,-79 211,-79 211,-28 211,-28 211,-22 217,-16 223,-16"/>
<text text-anchor="middle" x="270" y="-79.8" font-family="Helvetica,sans-Serif" font-size="9.00">Legend</text>
</g>
<!-- consumer -->
<g id="node1" class="node">
<title>consumer</title>
<path fill="#e8f0fe" stroke="black" d="M166,-271C166,-271 102,-271 102,-271 96,-271 90,-265 90,-259 90,-259 90,-247 90,-247 90,-241 96,-235 102,-235 102,-235 166,-235 166,-235 172,-235 178,-241 178,-247 178,-247 178,-259 178,-259 178,-265 172,-271 166,-271"/>
<text text-anchor="middle" x="134" y="-249.3" font-family="Helvetica,sans-Serif" font-size="14.00">Consumer</text>
</g>
<!-- gitea -->
<g id="node2" class="node">
<title>gitea</title>
<path fill="#e8f0fe" stroke="black" d="M168,-177C168,-177 100,-177 100,-177 94,-177 88,-171 88,-165 88,-165 88,-151 88,-151 88,-145 94,-139 100,-139 100,-139 168,-139 168,-139 174,-139 180,-145 180,-151 180,-151 180,-165 180,-165 180,-171 174,-177 168,-177"/>
<text text-anchor="middle" x="134" y="-161.8" font-family="Helvetica,sans-Serif" font-size="14.00">Gitea</text>
<text text-anchor="middle" x="134" y="-146.8" font-family="Helvetica,sans-Serif" font-size="14.00">(container)</text>
</g>
<!-- consumer&#45;&gt;gitea -->
<g id="edge1" class="edge">
<title>consumer&#45;&gt;gitea</title>
<path fill="none" stroke="black" stroke-dasharray="5,2" d="M89.79,-247.82C69.61,-243.45 47.47,-234.64 35,-217 19.49,-195.06 47.81,-180.14 78.08,-170.93"/>
<polygon fill="black" stroke="black" points="79.26,-174.23 87.93,-168.14 77.35,-167.5 79.26,-174.23"/>
<text text-anchor="middle" x="73.5" y="-203.5" font-family="Helvetica,sans-Serif" font-size="10.00">create / destroy</text>
</g>
<!-- consumer&#45;&gt;gitea -->
<g id="edge2" class="edge">
<title>consumer&#45;&gt;gitea</title>
<path fill="none" stroke="black" d="M134,-234.94C134,-221.65 134,-202.9 134,-187.36"/>
<polygon fill="black" stroke="black" points="137.5,-187.22 134,-177.22 130.5,-187.22 137.5,-187.22"/>
<text text-anchor="middle" x="182.5" y="-209" font-family="Helvetica,sans-Serif" font-size="10.00">clone, push, PR,</text>
<text text-anchor="middle" x="182.5" y="-198" font-family="Helvetica,sans-Serif" font-size="10.00">issues, branches, ...</text>
</g>
<!-- consumer&#45;&gt;gitea -->
<g id="edge3" class="edge">
<title>consumer&#45;&gt;gitea</title>
<path fill="none" stroke="#2d7d46" d="M178.02,-247.64C197.94,-243.22 219.72,-234.43 232,-217 247.26,-195.35 219.7,-180.47 189.96,-171.21"/>
<polygon fill="#2d7d46" stroke="#2d7d46" points="190.86,-167.82 180.28,-168.4 188.9,-174.55 190.86,-167.82"/>
<text text-anchor="middle" x="285" y="-209" font-family="Helvetica,sans-Serif" font-size="10.00" fill="#2d7d46">mirror&#45;from&#45;github /</text>
<text text-anchor="middle" x="285" y="-198" font-family="Helvetica,sans-Serif" font-size="10.00" fill="#2d7d46">promote&#45;to&#45;github</text>
</g>
<!-- github -->
<g id="node3" class="node">
<title>github</title>
<path fill="#f5f5f5" stroke="black" d="M166.5,-59.23C166.5,-61.03 151.93,-62.5 134,-62.5 116.07,-62.5 101.5,-61.03 101.5,-59.23 101.5,-59.23 101.5,-29.77 101.5,-29.77 101.5,-27.97 116.07,-26.5 134,-26.5 151.93,-26.5 166.5,-27.97 166.5,-29.77 166.5,-29.77 166.5,-59.23 166.5,-59.23"/>
<path fill="none" stroke="black" d="M166.5,-59.23C166.5,-57.42 151.93,-55.95 134,-55.95 116.07,-55.95 101.5,-57.42 101.5,-59.23"/>
<text text-anchor="middle" x="134" y="-40.8" font-family="Helvetica,sans-Serif" font-size="14.00">GitHub</text>
</g>
<!-- gitea&#45;&gt;github -->
<g id="edge4" class="edge">
<title>gitea&#45;&gt;github</title>
<path fill="none" stroke="#2d7d46" d="M134,-138.59C134,-120.76 134,-93.51 134,-73.09"/>
<polygon fill="#2d7d46" stroke="#2d7d46" points="137.5,-72.84 134,-62.84 130.5,-72.84 137.5,-72.84"/>
<text text-anchor="middle" x="183" y="-113" font-family="Helvetica,sans-Serif" font-size="10.00" fill="#2d7d46">mirror&#45;from&#45;github /</text>
<text text-anchor="middle" x="183" y="-102" font-family="Helvetica,sans-Serif" font-size="10.00" fill="#2d7d46">promote&#45;to&#45;github</text>
</g>
<!-- spacer -->
<!-- gitea&#45;&gt;spacer -->
<!-- leg -->
<g id="node5" class="node">
<title>leg</title>
<path fill="transparent" stroke="transparent" d="M312.5,-69C312.5,-69 227.5,-69 227.5,-69 221.5,-69 215.5,-63 215.5,-57 215.5,-57 215.5,-32 215.5,-32 215.5,-26 221.5,-20 227.5,-20 227.5,-20 312.5,-20 312.5,-20 318.5,-20 324.5,-26 324.5,-32 324.5,-32 324.5,-57 324.5,-57 324.5,-63 318.5,-69 312.5,-69"/>
<text text-anchor="start" x="227" y="-55.1" font-family="Helvetica,sans-Serif" font-size="8.00">──▶</text>
<text text-anchor="start" x="248" y="-55.1" font-family="Helvetica,sans-Serif" font-size="8.00">Git platform ops</text>
<text text-anchor="start" x="227" y="-42.1" font-family="Helvetica,sans-Serif" font-size="8.00">&#45; &#45; ▶</text>
<text text-anchor="start" x="248" y="-42.1" font-family="Helvetica,sans-Serif" font-size="8.00">Lifecycle</text>
<text text-anchor="start" x="227" y="-29.1" font-family="Helvetica,sans-Serif" font-size="8.00" fill="#2d7d46">──▶</text>
<text text-anchor="start" x="248" y="-29.1" font-family="Helvetica,sans-Serif" font-size="8.00">GitHub sync</text>
</g>
<!-- spacer&#45;&gt;leg -->
</g>
</svg>
